# xmcd
#
# Track frame offsets: 
#        150
#        18359
#        33657
#        43737
#        68035
#        80381
#        94859
#        106499
#        117647
#        129767
#        150856
#        163791
#        185340
#        194771
#        215811
#        233093
#        249592
#        264631
#        277685
#        294351
#
# Disc length: 4051 seconds
#
# Revision: 0
# Processed by: cddbd v1.5.2PL0 Copyright (c) Steve Scherf et al.
# Submitted via: ExactAudioCopy v0.95b4
#
DISCID=190fd114
DTITLE=Various Artist - Country Stodola
DYEAR=1900
DGENRE=
TTITLE0=Ranec plnej pisni
TTITLE1=Co dat sve lasce
TTITLE2=Kokakola
TTITLE3=Kosmickej vandr
TTITLE4=Kluci to taky nemaj lehky
TTITLE5=Barevny sal
TTITLE6=Z Pulcinskeho kostelicka
TTITLE7=Modlidba
TTITLE8=Laska je vec kouzelna
TTITLE9=Odpocin si Saro
TTITLE10=Pisen tulaka
TTITLE11=Buraky
TTITLE12=Ruty suty Arizona Teksas
TTITLE13=Divka z Cheyenne
TTITLE14=Lasko, mne ubyva sil
TTITLE15=Charlie and Fantom 305
TTITLE16=Narek prevoznika
TTITLE17=Skaredy holky
TTITLE18=Mas chut majoranky
TTITLE19=Ne a nebudem se zeniti
EXTD=
EXTT0=
EXTT1=
EXTT2=
EXTT3=
EXTT4=
EXTT5=
EXTT6=
EXTT7=
EXTT8=
EXTT9=
EXTT10=
EXTT11=
EXTT12=
EXTT13=
EXTT14=
EXTT15=
EXTT16=
EXTT17=
EXTT18=
EXTT19=
PLAYORDER=
